<svg fill="#800080" width="20px" height="20px" viewBox="0 0 0.42 0.42" xmlns="http://www.w3.org/2000/svg"><path d="M0.07 0.21a0.018 0.018 0 0 0 0.018 0.018h0.133l-0.04 0.04a0.018 0.018 0 0 0 0 0.025 0.018 0.018 0 0 0 0.025 0l0.07 -0.07a0.018 0.018 0 0 0 0.004 -0.006 0.018 0.018 0 0 0 0 -0.013 0.018 0.018 0 0 0 -0.004 -0.006l-0.07 -0.07a0.018 0.018 0 1 0 -0.025 0.025l0.04 0.04H0.088a0.018 0.018 0 0 0 -0.018 0.018M0.298 0.035H0.123a0.053 0.053 0 0 0 -0.053 0.053v0.053a0.018 0.018 0 0 0 0.035 0V0.088a0.018 0.018 0 0 1 0.018 -0.018h0.175a0.018 0.018 0 0 1 0.018 0.018v0.245a0.018 0.018 0 0 1 -0.018 0.018H0.123a0.018 0.018 0 0 1 -0.018 -0.018v-0.053a0.018 0.018 0 0 0 -0.035 0v0.053a0.053 0.053 0 0 0 0.053 0.053h0.175a0.053 0.053 0 0 0 0.053 -0.053V0.088a0.053 0.053 0 0 0 -0.053 -0.053"/></svg>
